# xmcd
#
# Track frame offsets: 
#        182
#        10132
#        24205
#        35900
#        57072
#        70342
#        85975
#        96577
#        107777
#        115862
#        126250
#        141687
#        150830
#        163965
#
# Disc length: 2389 seconds
#
# Revision: 2
# Processed by: cddbd v1.5.1PL2 Copyright (c) Steve Scherf et al.
# Submitted via: ExactAudioCopy v0.95b3
#
DISCID=c109530e
DTITLE=Bob Wills and His Texas Playboys - The Tiffany Transcriptions, Vo
DTITLE=l. 2: Best of the Tiffanys
DYEAR=1987
DGENRE=Western Swing
TTITLE0=Take Me Back to Tulsa
TTITLE1=Faded Love
TTITLE2=Right or Wrong
TTITLE3=Bring It On Down to My House
TTITLE4=Cherokee Maiden
TTITLE5=Steel Guitar Rag
TTITLE6=Stay a Little Longer
TTITLE7=Roly Poly
TTITLE8=Cotton Eyed Joe
TTITLE9=Time Changes Everything
TTITLE10=Corrine, Corrina
TTITLE11=Ida Red
TTITLE12=Maiden's Prayer
TTITLE13=San Antonio Rose
EXTD=Recorded San Francisco US-CA, 1946-03-25/1947-09-06, for the Tiff
EXTD=any Music Company.\nOriginally released on Kaleidoscope LP/CD/CS 
EXTD=F/K/C-19 (1986?1987).\nCD: Rhino R2 71470 Mono (1993.09.28), UPC 
EXTD=081227147020, ISBN 1-56826-219-1.
EXTT0=
EXTT1=
EXTT2=
EXTT3=
EXTT4=
EXTT5=
EXTT6=
EXTT7=
EXTT8=
EXTT9=
EXTT10=
EXTT11=
EXTT12=
EXTT13=
PLAYORDER=
